<svg xmlns="http://www.w3.org/2000/svg" xmlns:xlink="http://www.w3.org/1999/xlink" width="500" zoomAndPan="magnify" viewBox="0 0 375 374.999991" height="500" preserveAspectRatio="xMidYMid meet" version="1.2"><defs><clipPath id="f181d3c844"><path d="M 77 11.484375 L 131 11.484375 L 131 55 L 77 55 Z M 77 11.484375 "/></clipPath><clipPath id="1ed06eea23"><path d="M 244 11.484375 L 298 11.484375 L 298 55 L 244 55 Z M 244 11.484375 "/></clipPath><clipPath id="02eec7a3f8"><path d="M 183 49.148438 L 189 49.148438 L 189 51 L 183 51 Z M 183 49.148438 "/></clipPath><clipPath id="223af89681"><path d="M 185 49.148438 L 192 49.148438 L 192 50 L 185 50 Z M 185 49.148438 "/></clipPath></defs><g id="9ffc921d81"><rect x="0" width="375" y="0" height="374.999991" style="fill:#ffffff;fill-opacity:1;stroke:none;"/><rect x="0" width="375" y="0" height="374.999991" style="fill:#ffffff;fill-opacity:1;stroke:none;"/><g clip-rule="nonzero" clip-path="url(#f181d3c844)"><path style=" stroke:none;fill-rule:evenodd;fill:#000000;fill-opacity:1;" d="M 77.460938 54.484375 C 77.460938 54.484375 75.117188 46.160156 82.785156 31.691406 C 90.476562 17.226562 114.058594 11.484375 114.058594 11.484375 C 114.058594 11.484375 107.894531 14.488281 104.363281 21.46875 C 100.859375 28.453125 91.742188 42.757812 82.203125 49.082031 C 109 29.664062 108.632812 38.097656 130.65625 36.59375 C 130.65625 36.59375 112.1875 49.636719 100.121094 50.953125 C 88.078125 52.269531 83.335938 51.136719 77.460938 54.484375 Z M 77.460938 54.484375 "/></g><path style=" stroke:none;fill-rule:evenodd;fill:#000000;fill-opacity:1;" d="M 45.527344 92.292969 C 45.527344 92.292969 40.835938 85.023438 43.945312 68.921875 C 47.03125 52.851562 67.898438 40.441406 67.898438 40.441406 C 67.898438 40.441406 62.890625 45.128906 61.574219 52.851562 C 60.257812 60.542969 55.722656 76.90625 48.476562 85.734375 C 68.371094 59.304688 70.53125 67.472656 91.136719 59.570312 C 91.136719 59.570312 77.277344 77.460938 66.15625 82.253906 C 55.011719 87.078125 50.164062 87.367188 45.527344 92.292969 Z M 45.527344 92.292969 "/><path style=" stroke:none;fill-rule:evenodd;fill:#000000;fill-opacity:1;" d="M 26.109375 137.796875 C 26.109375 137.796875 19.496094 132.238281 17.730469 115.953125 C 15.964844 99.671875 32.25 81.675781 32.25 81.675781 C 32.25 81.675781 28.847656 87.628906 29.851562 95.402344 C 30.851562 103.148438 31.351562 120.089844 27.003906 130.683594 C 38.253906 99.566406 42.707031 106.757812 60.097656 93.164062 C 60.097656 93.164062 52.113281 114.320312 42.894531 122.171875 C 33.644531 130.023438 29.085938 131.738281 26.109375 137.796875 Z M 26.109375 137.796875 "/><path style=" stroke:none;fill-rule:evenodd;fill:#000000;fill-opacity:1;" d="M 20.890625 187.015625 C 20.890625 187.015625 12.933594 183.640625 6.480469 168.597656 C 0.0234375 153.554688 10.300781 131.578125 10.300781 131.578125 C 10.300781 131.578125 8.796875 138.269531 12.039062 145.386719 C 15.253906 152.5 20.707031 168.570312 19.679688 179.953125 C 21.289062 146.886719 27.664062 152.445312 40.285156 134.371094 C 40.285156 134.371094 38.863281 156.925781 32.351562 167.148438 C 25.84375 177.371094 21.972656 180.347656 20.890625 187.015625 Z M 20.890625 187.015625 "/><path style=" stroke:none;fill-rule:evenodd;fill:#000000;fill-opacity:1;" d="M 30.378906 235.601562 C 30.378906 235.601562 21.761719 234.703125 11.167969 222.214844 C 0.578125 209.726562 3.949219 185.699219 3.949219 185.699219 C 3.949219 185.699219 4.476562 192.546875 9.667969 198.398438 C 14.859375 204.246094 24.765625 218 27.136719 229.199219 C 18.96875 197.132812 26.6875 200.585938 33.433594 179.558594 C 33.433594 179.558594 38.703125 201.558594 35.488281 213.230469 C 32.25 224.929688 29.429688 228.910156 30.378906 235.601562 Z M 30.378906 235.601562 "/><path style=" stroke:none;fill-rule:evenodd;fill:#000000;fill-opacity:1;" d="M 53.695312 279.234375 C 53.695312 279.234375 45.210938 280.917969 31.429688 272.09375 C 17.625 263.265625 13.804688 239.316406 13.804688 239.316406 C 13.804688 239.316406 16.308594 245.691406 22.972656 249.777344 C 29.664062 253.832031 43.183594 264.082031 48.714844 274.070312 C 31.511719 245.824219 39.890625 246.851562 40.179688 224.796875 C 40.179688 224.796875 51.667969 244.242188 52.007812 256.363281 C 52.378906 268.484375 50.851562 273.121094 53.695312 279.234375 Z M 53.695312 279.234375 "/><path style=" stroke:none;fill-rule:evenodd;fill:#000000;fill-opacity:1;" d="M 88.816406 314.117188 C 88.816406 314.117188 81.175781 318.203125 65.421875 313.828125 C 49.636719 309.453125 38.941406 287.664062 38.941406 287.664062 C 38.941406 287.664062 43.207031 293.039062 50.796875 294.964844 C 58.359375 296.886719 74.300781 302.710938 82.519531 310.640625 C 57.78125 288.691406 66.105469 287.214844 59.886719 266.03125 C 59.886719 266.03125 76.59375 281.261719 80.492188 292.75 C 84.390625 304.238281 84.285156 309.113281 88.816406 314.117188 Z M 88.816406 314.117188 "/><path style=" stroke:none;fill-rule:evenodd;fill:#000000;fill-opacity:1;" d="M 132.632812 337.144531 C 132.632812 337.144531 126.546875 343.285156 110.1875 343.734375 C 93.824219 344.179688 77.199219 326.476562 77.199219 326.476562 C 77.199219 326.476562 82.863281 330.375 90.660156 329.980469 C 98.460938 329.609375 115.402344 330.480469 125.597656 335.671875 C 95.484375 321.945312 103.019531 318.097656 90.871094 299.679688 C 90.871094 299.679688 111.320312 309.324219 118.40625 319.152344 C 125.492188 328.976562 126.835938 333.695312 132.632812 337.144531 Z M 132.632812 337.144531 "/><path style=" stroke:none;fill-rule:evenodd;fill:#000000;fill-opacity:1;" d="M 104.996094 30.035156 C 104.996094 30.035156 113.082031 19.597656 130.183594 17.070312 C 147.285156 14.515625 146.441406 13.355469 146.441406 13.355469 C 146.441406 13.355469 126.285156 37.042969 104.996094 30.035156 Z M 104.996094 30.035156 "/><g clip-rule="nonzero" clip-path="url(#1ed06eea23)"><path style=" stroke:none;fill-rule:evenodd;fill:#000000;fill-opacity:1;" d="M 297.519531 54.484375 C 297.519531 54.484375 299.867188 46.160156 292.199219 31.691406 C 284.503906 17.226562 260.921875 11.484375 260.921875 11.484375 C 260.921875 11.484375 267.089844 14.488281 270.617188 21.46875 C 274.125 28.453125 283.238281 42.757812 292.777344 49.082031 C 266.007812 29.664062 266.351562 38.097656 244.324219 36.59375 C 244.324219 36.59375 262.820312 49.636719 274.859375 50.953125 C 286.902344 52.269531 291.644531 51.136719 297.519531 54.484375 Z M 297.519531 54.484375 "/></g><path style=" stroke:none;fill-rule:evenodd;fill:#000000;fill-opacity:1;" d="M 329.453125 92.292969 C 329.453125 92.292969 334.144531 85.023438 331.0625 68.921875 C 327.953125 52.851562 307.109375 40.441406 307.109375 40.441406 C 307.109375 40.441406 312.117188 45.128906 313.433594 52.851562 C 314.726562 60.542969 319.257812 76.90625 326.503906 85.734375 C 306.609375 59.304688 304.476562 67.472656 283.871094 59.570312 C 283.871094 59.570312 297.703125 77.460938 308.824219 82.253906 C 319.96875 87.078125 324.84375 87.367188 329.453125 92.292969 Z M 329.453125 92.292969 "/><path style=" stroke:none;fill-rule:evenodd;fill:#000000;fill-opacity:1;" d="M 348.871094 137.796875 C 348.871094 137.796875 355.484375 132.238281 357.25 115.953125 C 359.015625 99.671875 342.734375 81.675781 342.734375 81.675781 C 342.734375 81.675781 346.132812 87.628906 345.132812 95.402344 C 344.128906 103.148438 343.65625 120.089844 347.976562 130.683594 C 336.726562 99.566406 332.273438 106.757812 314.910156 93.164062 C 314.910156 93.164062 322.867188 114.320312 332.117188 122.171875 C 341.335938 130.023438 345.894531 131.738281 348.871094 137.796875 Z M 348.871094 137.796875 "/><path style=" stroke:none;fill-rule:evenodd;fill:#000000;fill-opacity:1;" d="M 354.089844 187.015625 C 354.089844 187.015625 362.046875 183.640625 368.5 168.597656 C 374.984375 153.554688 364.679688 131.578125 364.679688 131.578125 C 364.679688 131.578125 366.183594 138.269531 362.96875 145.386719 C 359.726562 152.5 354.273438 168.570312 355.300781 179.953125 C 353.695312 146.886719 347.34375 152.445312 334.722656 134.371094 C 334.722656 134.371094 336.121094 156.925781 342.628906 167.148438 C 349.164062 177.371094 353.035156 180.347656 354.089844 187.015625 Z M 354.089844 187.015625 "/><path style=" stroke:none;fill-rule:evenodd;fill:#000000;fill-opacity:1;" d="M 344.605469 235.601562 C 344.605469 235.601562 353.21875 234.703125 363.8125 222.214844 C 374.402344 209.726562 371.03125 185.699219 371.03125 185.699219 C 371.03125 185.699219 370.503906 192.546875 365.3125 198.398438 C 360.125 204.246094 350.214844 218 347.871094 229.199219 C 356.011719 197.132812 348.292969 200.585938 341.546875 179.558594 C 341.546875 179.558594 336.277344 201.558594 339.492188 213.230469 C 342.734375 224.929688 345.554688 228.910156 344.605469 235.601562 Z M 344.605469 235.601562 "/><path style=" stroke:none;fill-rule:evenodd;fill:#000000;fill-opacity:1;" d="M 321.285156 279.234375 C 321.285156 279.234375 329.769531 280.917969 343.578125 272.09375 C 357.355469 263.265625 361.175781 239.316406 361.175781 239.316406 C 361.175781 239.316406 358.675781 245.691406 352.007812 249.777344 C 345.34375 253.832031 331.800781 264.082031 326.265625 274.070312 C 343.496094 245.824219 335.09375 246.851562 334.804688 224.796875 C 334.804688 224.796875 323.316406 244.242188 322.972656 256.363281 C 322.628906 268.484375 324.15625 273.121094 321.285156 279.234375 Z M 321.285156 279.234375 "/><path style=" stroke:none;fill-rule:evenodd;fill:#000000;fill-opacity:1;" d="M 286.164062 314.117188 C 286.164062 314.117188 293.804688 318.203125 309.5625 313.828125 C 325.34375 309.453125 336.042969 287.664062 336.042969 287.664062 C 336.042969 287.664062 331.773438 293.039062 324.183594 294.964844 C 316.621094 296.886719 300.683594 302.710938 292.460938 310.640625 C 317.203125 288.691406 308.902344 287.214844 315.09375 266.03125 C 315.09375 266.03125 298.390625 281.261719 294.492188 292.75 C 290.589844 304.238281 290.695312 309.113281 286.164062 314.117188 Z M 286.164062 314.117188 "/><path style=" stroke:none;fill-rule:evenodd;fill:#000000;fill-opacity:1;" d="M 242.347656 337.144531 C 242.347656 337.144531 248.460938 343.285156 264.824219 343.734375 C 281.183594 344.179688 297.808594 326.476562 297.808594 326.476562 C 297.808594 326.476562 292.144531 330.375 284.320312 329.980469 C 276.519531 329.609375 259.578125 330.480469 249.382812 335.671875 C 279.5 321.945312 271.988281 318.097656 284.136719 299.679688 C 284.136719 299.679688 263.6875 309.324219 256.574219 319.152344 C 249.488281 328.976562 248.171875 333.695312 242.347656 337.144531 Z M 242.347656 337.144531 "/><path style=" stroke:none;fill-rule:evenodd;fill:#000000;fill-opacity:1;" d="M 270.011719 30.035156 C 270.011719 30.035156 261.898438 19.597656 244.796875 17.070312 C 227.699219 14.515625 228.542969 13.355469 228.542969 13.355469 C 228.542969 13.355469 248.699219 37.042969 270.011719 30.035156 Z M 270.011719 30.035156 "/><path style=" stroke:none;fill-rule:evenodd;fill:#000000;fill-opacity:1;" d="M 187.492188 313.011719 L 193.734375 332.378906 L 214.074219 332.324219 L 197.609375 344.261719 L 203.933594 363.601562 L 187.492188 351.613281 L 171.050781 363.601562 L 177.375 344.261719 L 160.90625 332.324219 L 181.246094 332.378906 Z M 187.492188 313.011719 "/><path style=" stroke:none;fill-rule:evenodd;fill:#000000;fill-opacity:1;" d="M 225.457031 332.296875 L 227.855469 339.726562 L 235.65625 339.703125 L 229.332031 344.285156 L 231.753906 351.691406 L 225.457031 347.105469 L 219.160156 351.691406 L 221.585938 344.285156 L 215.261719 339.703125 L 223.0625 339.726562 Z M 225.457031 332.296875 "/><path style=" stroke:none;fill-rule:evenodd;fill:#000000;fill-opacity:1;" d="M 149.523438 332.296875 L 151.921875 339.726562 L 159.71875 339.703125 L 153.394531 344.285156 L 155.820312 351.691406 L 149.523438 347.105469 L 143.226562 351.691406 L 145.648438 344.285156 L 139.328125 339.703125 L 147.125 339.726562 Z M 149.523438 332.296875 "/><g style="fill:#000000;fill-opacity:1;"><g transform="translate(87.446846, 280.242749)"><path style="stroke:none" d="M 6.21875 -15.1875 C 7.039062 -15.175781 7.851562 -15.03125 8.65625 -14.75 C 9.457031 -14.46875 10.1875 -13.894531 10.84375 -13.03125 L 10.40625 -10.609375 L 8.96875 -10.609375 C 8.96875 -11.546875 8.738281 -12.234375 8.28125 -12.671875 C 7.832031 -13.117188 7.140625 -13.347656 6.203125 -13.359375 C 5.390625 -13.378906 4.722656 -13.175781 4.203125 -12.75 C 3.679688 -12.320312 3.421875 -11.726562 3.421875 -10.96875 C 3.421875 -10.570312 3.582031 -10.257812 3.90625 -10.03125 C 4.226562 -9.8125 4.648438 -9.628906 5.171875 -9.484375 C 5.691406 -9.347656 6.265625 -9.210938 6.890625 -9.078125 C 7.523438 -8.953125 8.15625 -8.789062 8.78125 -8.59375 C 9.414062 -8.394531 9.988281 -8.128906 10.5 -7.796875 C 11.019531 -7.460938 11.441406 -7.015625 11.765625 -6.453125 C 12.085938 -5.898438 12.25 -5.195312 12.25 -4.34375 C 12.25 -3.46875 12.039062 -2.664062 11.625 -1.9375 C 11.21875 -1.207031 10.578125 -0.640625 9.703125 -0.234375 C 8.835938 0.171875 7.703125 0.363281 6.296875 0.34375 C 5.617188 0.34375 5 0.238281 4.4375 0.03125 C 3.882812 -0.164062 3.398438 -0.410156 2.984375 -0.703125 C 2.578125 -1.003906 2.234375 -1.300781 1.953125 -1.59375 C 1.671875 -1.882812 1.460938 -2.128906 1.328125 -2.328125 C 1.203125 -2.535156 1.140625 -2.640625 1.140625 -2.640625 L 1.53125 -6.015625 L 2.90625 -6.015625 C 2.90625 -3.109375 4.066406 -1.65625 6.390625 -1.65625 C 7.054688 -1.65625 7.65625 -1.738281 8.1875 -1.90625 C 8.726562 -2.082031 9.144531 -2.363281 9.4375 -2.75 C 9.738281 -3.144531 9.890625 -3.675781 9.890625 -4.34375 C 9.890625 -4.945312 9.734375 -5.429688 9.421875 -5.796875 C 9.109375 -6.160156 8.6875 -6.453125 8.15625 -6.671875 C 7.632812 -6.890625 7.054688 -7.066406 6.421875 -7.203125 C 5.796875 -7.347656 5.171875 -7.492188 4.546875 -7.640625 C 3.921875 -7.796875 3.347656 -7.992188 2.828125 -8.234375 C 2.316406 -8.484375 1.90625 -8.8125 1.59375 -9.21875 C 1.289062 -9.625 1.144531 -10.160156 1.15625 -10.828125 C 1.164062 -11.609375 1.316406 -12.273438 1.609375 -12.828125 C 1.910156 -13.390625 2.304688 -13.847656 2.796875 -14.203125 C 3.285156 -14.554688 3.828125 -14.8125 4.421875 -14.96875 C 5.015625 -15.132812 5.613281 -15.207031 6.21875 -15.1875 Z M 6.21875 -15.1875 "/></g></g><g style="fill:#000000;fill-opacity:1;"><g transform="translate(100.823593, 280.242749)"><path style="stroke:none" d="M 0.625 0 L 0.625 -1.03125 L 1.59375 -1.234375 L 1.59375 -12.515625 C 1.59375 -13.273438 1.269531 -13.734375 0.625 -13.890625 L 0.625 -14.921875 L 4.75 -14.921875 L 4.75 -13.890625 L 3.78125 -13.671875 L 3.78125 -2.375 C 3.78125 -1.601562 4.101562 -1.15625 4.75 -1.03125 L 4.75 0 Z M 0.625 0 "/></g></g><g style="fill:#000000;fill-opacity:1;"><g transform="translate(106.1575, 280.242749)"><path style="stroke:none" d="M 7.859375 0.3125 C 6.410156 0.3125 5.164062 -0.0078125 4.125 -0.65625 C 3.082031 -1.3125 2.28125 -2.226562 1.71875 -3.40625 C 1.15625 -4.582031 0.875 -5.953125 0.875 -7.515625 C 0.875 -8.972656 1.15625 -10.28125 1.71875 -11.4375 C 2.28125 -12.59375 3.070312 -13.503906 4.09375 -14.171875 C 5.113281 -14.847656 6.3125 -15.1875 7.6875 -15.1875 C 8.6875 -15.1875 9.691406 -15 10.703125 -14.625 C 11.722656 -14.25 12.597656 -13.660156 13.328125 -12.859375 L 12.78125 -10.5 L 11.390625 -10.5 C 11.378906 -11.21875 11.1875 -11.785156 10.8125 -12.203125 C 10.4375 -12.628906 9.988281 -12.929688 9.46875 -13.109375 C 8.957031 -13.296875 8.46875 -13.390625 8 -13.390625 C 6.414062 -13.390625 5.203125 -12.859375 4.359375 -11.796875 C 3.523438 -10.742188 3.109375 -9.332031 3.109375 -7.5625 C 3.109375 -6.34375 3.304688 -5.289062 3.703125 -4.40625 C 4.109375 -3.53125 4.671875 -2.851562 5.390625 -2.375 C 6.109375 -1.894531 6.945312 -1.65625 7.90625 -1.65625 C 8.601562 -1.65625 9.1875 -1.722656 9.65625 -1.859375 C 10.125 -1.992188 10.515625 -2.164062 10.828125 -2.375 C 11.117188 -2.582031 11.3125 -2.820312 11.40625 -3.09375 C 11.507812 -3.375 11.5625 -3.789062 11.5625 -4.34375 C 11.5625 -5.101562 11.207031 -5.5625 10.5 -5.71875 L 10.5 -6.59375 L 13.953125 -6.59375 L 13.953125 -5.796875 L 13.734375 -5.625 L 13.734375 -0.625 L 12.5 -0.625 L 11.984375 -0.96875 C 11.441406 -0.59375 10.832031 -0.285156 10.15625 -0.046875 C 9.476562 0.191406 8.710938 0.3125 7.859375 0.3125 Z M 7.859375 0.3125 "/></g></g><g style="fill:#000000;fill-opacity:1;"><g transform="translate(120.962224, 280.242749)"><path style="stroke:none" d="M 0.734375 0 L 0.734375 -1.03125 L 1.703125 -1.234375 L 1.703125 -12.625 C 1.703125 -13.34375 1.375 -13.765625 0.71875 -13.890625 L 0.734375 -14.921875 L 4.078125 -14.921875 L 10.296875 -4.0625 L 10.59375 -3.40625 L 10.59375 -14.921875 L 13.734375 -14.921875 L 13.734375 -13.890625 C 13.097656 -13.765625 12.78125 -13.34375 12.78125 -12.625 L 12.78125 0 L 10.4375 0 L 4.1875 -10.859375 L 3.890625 -11.53125 L 3.890625 -2.265625 C 3.890625 -1.566406 4.210938 -1.15625 4.859375 -1.03125 L 4.859375 0 Z M 0.734375 0 "/></g></g><g style="fill:#000000;fill-opacity:1;"><g transform="translate(135.40996, 280.242749)"><path style="stroke:none" d="M 13.71875 -2.234375 C 13.863281 -1.890625 14.039062 -1.625 14.25 -1.4375 C 14.46875 -1.257812 14.769531 -1.117188 15.15625 -1.015625 L 15.15625 0 L 10.953125 0 L 10.953125 -1.015625 L 11.828125 -1.28125 L 10.671875 -4.265625 L 4.828125 -4.265625 L 3.671875 -1.234375 L 4.515625 -1.015625 L 4.515625 0 L 0.40625 0 L 0.40625 -1.015625 C 0.769531 -1.117188 1.046875 -1.257812 1.234375 -1.4375 C 1.429688 -1.613281 1.59375 -1.863281 1.71875 -2.1875 L 5.796875 -12.421875 C 5.953125 -12.828125 6 -13.160156 5.9375 -13.421875 C 5.882812 -13.679688 5.71875 -13.835938 5.4375 -13.890625 L 5.46875 -14.921875 L 8.65625 -14.921875 Z M 5.53125 -6.046875 L 9.984375 -6.046875 L 7.9375 -11.34375 L 7.734375 -12.171875 L 7.546875 -11.34375 Z M 5.53125 -6.046875 "/></g></g><g style="fill:#000000;fill-opacity:1;"><g transform="translate(150.949668, 280.242749)"><path style="stroke:none" d="M 0.8125 -14.921875 L 13.421875 -14.921875 L 13.0625 -12.171875 L 12.0625 -12.171875 C 11.945312 -12.804688 11.503906 -13.125 10.734375 -13.125 L 8.21875 -13.125 L 8.21875 -2.375 C 8.21875 -1.601562 8.539062 -1.15625 9.1875 -1.03125 L 9.1875 0 L 5.0625 0 L 5.0625 -1.03125 L 6.03125 -1.234375 L 6.03125 -13.125 L 3.53125 -13.125 C 2.75 -13.125 2.304688 -12.804688 2.203125 -12.171875 L 1.171875 -12.171875 Z M 0.8125 -14.921875 "/></g></g><g style="fill:#000000;fill-opacity:1;"><g transform="translate(165.187409, 280.242749)"><path style="stroke:none" d="M 15.28125 -14.921875 L 15.28125 -13.78125 C 14.9375 -13.726562 14.671875 -13.585938 14.484375 -13.359375 C 14.304688 -13.140625 14.21875 -12.851562 14.21875 -12.5 L 14.21875 -7.484375 C 14.21875 -5.046875 13.71875 -3.144531 12.71875 -1.78125 C 11.726562 -0.414062 10.164062 0.265625 8.03125 0.265625 C 5.851562 0.265625 4.269531 -0.410156 3.28125 -1.765625 C 2.300781 -3.117188 1.8125 -5.023438 1.8125 -7.484375 L 1.765625 -12.515625 C 1.765625 -12.867188 1.671875 -13.15625 1.484375 -13.375 C 1.296875 -13.59375 1.039062 -13.726562 0.71875 -13.78125 L 0.71875 -14.921875 L 5 -14.921875 L 5 -13.78125 L 3.953125 -13.609375 L 4 -7.484375 C 4 -6.347656 4.132812 -5.347656 4.40625 -4.484375 C 4.6875 -3.617188 5.125 -2.945312 5.71875 -2.46875 C 6.320312 -2 7.078125 -1.765625 7.984375 -1.765625 C 8.910156 -1.765625 9.671875 -2 10.265625 -2.46875 C 10.859375 -2.945312 11.300781 -3.617188 11.59375 -4.484375 C 11.894531 -5.347656 12.046875 -6.347656 12.046875 -7.484375 L 12.046875 -13.609375 L 10.984375 -13.78125 L 10.984375 -14.921875 Z M 15.28125 -14.921875 "/></g></g><g style="fill:#000000;fill-opacity:1;"><g transform="translate(181.04211, 280.242749)"><path style="stroke:none" d="M 0.796875 0 L 0.796875 -1.03125 L 1.765625 -1.234375 L 1.765625 -12.484375 C 1.765625 -13.222656 1.421875 -13.648438 0.734375 -13.765625 L 0.71875 -14.921875 L 5.8125 -14.921875 C 6.9375 -14.921875 7.910156 -14.726562 8.734375 -14.34375 C 9.566406 -13.957031 10.207031 -13.429688 10.65625 -12.765625 C 11.101562 -12.097656 11.328125 -11.335938 11.328125 -10.484375 C 11.328125 -9.722656 11.222656 -9.09375 11.015625 -8.59375 C 10.816406 -8.09375 10.554688 -7.675781 10.234375 -7.34375 C 9.910156 -7.007812 9.566406 -6.738281 9.203125 -6.53125 C 8.835938 -6.332031 8.488281 -6.171875 8.15625 -6.046875 C 8.863281 -4.867188 9.472656 -3.921875 9.984375 -3.203125 C 10.503906 -2.492188 10.992188 -1.976562 11.453125 -1.65625 C 11.910156 -1.332031 12.421875 -1.144531 12.984375 -1.09375 L 13.03125 0 L 9.984375 0 C 9.460938 -0.5625 9.015625 -1.109375 8.640625 -1.640625 C 8.273438 -2.171875 7.910156 -2.769531 7.546875 -3.4375 C 7.191406 -4.101562 6.765625 -4.894531 6.265625 -5.8125 L 3.953125 -5.8125 L 3.953125 -2.265625 C 3.953125 -1.578125 4.273438 -1.164062 4.921875 -1.03125 L 4.921875 0 Z M 3.953125 -7.4375 L 5.078125 -7.4375 C 5.585938 -7.4375 6.078125 -7.457031 6.546875 -7.5 C 7.023438 -7.550781 7.457031 -7.675781 7.84375 -7.875 C 8.226562 -8.070312 8.53125 -8.375 8.75 -8.78125 C 8.976562 -9.1875 9.09375 -9.75 9.09375 -10.46875 C 9.09375 -11.164062 8.816406 -11.753906 8.265625 -12.234375 C 7.722656 -12.722656 6.878906 -12.972656 5.734375 -12.984375 C 5.492188 -12.992188 5.203125 -12.992188 4.859375 -12.984375 C 4.515625 -12.984375 4.210938 -12.984375 3.953125 -12.984375 Z M 3.953125 -7.4375 "/></g></g><g style="fill:#000000;fill-opacity:1;"><g transform="translate(195.19585, 280.242749)"><path style="stroke:none" d="M 1.625 0 L 1.625 -12.5 C 1.625 -13.300781 1.285156 -13.75 0.609375 -13.84375 L 0.609375 -14.921875 L 10.0625 -14.921875 L 10.84375 -14.28125 L 10.5 -12.046875 L 9.5 -12.046875 C 9.394531 -12.753906 8.953125 -13.109375 8.171875 -13.109375 L 3.796875 -13.109375 L 3.796875 -8.953125 L 9.34375 -8.953125 L 9.34375 -7.140625 L 3.796875 -7.140625 L 3.796875 -1.8125 L 8.171875 -1.8125 C 8.953125 -1.8125 9.394531 -2.164062 9.5 -2.875 L 10.5 -2.875 L 10.84375 -0.609375 L 10.0625 0 Z M 1.625 0 "/></g></g><g style="fill:#000000;fill-opacity:1;"><g transform="translate(207.060634, 280.242749)"><path style="stroke:none" d=""/></g></g><g style="fill:#000000;fill-opacity:1;"><g transform="translate(212.688523, 280.242749)"><path style="stroke:none" d="M 6.21875 -15.1875 C 7.039062 -15.175781 7.851562 -15.03125 8.65625 -14.75 C 9.457031 -14.46875 10.1875 -13.894531 10.84375 -13.03125 L 10.40625 -10.609375 L 8.96875 -10.609375 C 8.96875 -11.546875 8.738281 -12.234375 8.28125 -12.671875 C 7.832031 -13.117188 7.140625 -13.347656 6.203125 -13.359375 C 5.390625 -13.378906 4.722656 -13.175781 4.203125 -12.75 C 3.679688 -12.320312 3.421875 -11.726562 3.421875 -10.96875 C 3.421875 -10.570312 3.582031 -10.257812 3.90625 -10.03125 C 4.226562 -9.8125 4.648438 -9.628906 5.171875 -9.484375 C 5.691406 -9.347656 6.265625 -9.210938 6.890625 -9.078125 C 7.523438 -8.953125 8.15625 -8.789062 8.78125 -8.59375 C 9.414062 -8.394531 9.988281 -8.128906 10.5 -7.796875 C 11.019531 -7.460938 11.441406 -7.015625 11.765625 -6.453125 C 12.085938 -5.898438 12.25 -5.195312 12.25 -4.34375 C 12.25 -3.46875 12.039062 -2.664062 11.625 -1.9375 C 11.21875 -1.207031 10.578125 -0.640625 9.703125 -0.234375 C 8.835938 0.171875 7.703125 0.363281 6.296875 0.34375 C 5.617188 0.34375 5 0.238281 4.4375 0.03125 C 3.882812 -0.164062 3.398438 -0.410156 2.984375 -0.703125 C 2.578125 -1.003906 2.234375 -1.300781 1.953125 -1.59375 C 1.671875 -1.882812 1.460938 -2.128906 1.328125 -2.328125 C 1.203125 -2.535156 1.140625 -2.640625 1.140625 -2.640625 L 1.53125 -6.015625 L 2.90625 -6.015625 C 2.90625 -3.109375 4.066406 -1.65625 6.390625 -1.65625 C 7.054688 -1.65625 7.65625 -1.738281 8.1875 -1.90625 C 8.726562 -2.082031 9.144531 -2.363281 9.4375 -2.75 C 9.738281 -3.144531 9.890625 -3.675781 9.890625 -4.34375 C 9.890625 -4.945312 9.734375 -5.429688 9.421875 -5.796875 C 9.109375 -6.160156 8.6875 -6.453125 8.15625 -6.671875 C 7.632812 -6.890625 7.054688 -7.066406 6.421875 -7.203125 C 5.796875 -7.347656 5.171875 -7.492188 4.546875 -7.640625 C 3.921875 -7.796875 3.347656 -7.992188 2.828125 -8.234375 C 2.316406 -8.484375 1.90625 -8.8125 1.59375 -9.21875 C 1.289062 -9.625 1.144531 -10.160156 1.15625 -10.828125 C 1.164062 -11.609375 1.316406 -12.273438 1.609375 -12.828125 C 1.910156 -13.390625 2.304688 -13.847656 2.796875 -14.203125 C 3.285156 -14.554688 3.828125 -14.8125 4.421875 -14.96875 C 5.015625 -15.132812 5.613281 -15.207031 6.21875 -15.1875 Z M 6.21875 -15.1875 "/></g></g><g style="fill:#000000;fill-opacity:1;"><g transform="translate(226.06527, 280.242749)"><path style="stroke:none" d="M 1.625 0 L 1.625 -12.5 C 1.625 -13.300781 1.285156 -13.75 0.609375 -13.84375 L 0.609375 -14.921875 L 10.0625 -14.921875 L 10.84375 -14.28125 L 10.5 -12.046875 L 9.5 -12.046875 C 9.394531 -12.753906 8.953125 -13.109375 8.171875 -13.109375 L 3.796875 -13.109375 L 3.796875 -8.953125 L 9.34375 -8.953125 L 9.34375 -7.140625 L 3.796875 -7.140625 L 3.796875 -1.8125 L 8.171875 -1.8125 C 8.953125 -1.8125 9.394531 -2.164062 9.5 -2.875 L 10.5 -2.875 L 10.84375 -0.609375 L 10.0625 0 Z M 1.625 0 "/></g></g><g style="fill:#000000;fill-opacity:1;"><g transform="translate(237.930054, 280.242749)"><path style="stroke:none" d="M 0.796875 0 L 0.796875 -1.03125 L 1.765625 -1.234375 L 1.765625 -12.484375 C 1.765625 -13.222656 1.421875 -13.648438 0.734375 -13.765625 L 0.71875 -14.921875 L 5.8125 -14.921875 C 6.9375 -14.921875 7.910156 -14.726562 8.734375 -14.34375 C 9.566406 -13.957031 10.207031 -13.429688 10.65625 -12.765625 C 11.101562 -12.097656 11.328125 -11.335938 11.328125 -10.484375 C 11.328125 -9.722656 11.222656 -9.09375 11.015625 -8.59375 C 10.816406 -8.09375 10.554688 -7.675781 10.234375 -7.34375 C 9.910156 -7.007812 9.566406 -6.738281 9.203125 -6.53125 C 8.835938 -6.332031 8.488281 -6.171875 8.15625 -6.046875 C 8.863281 -4.867188 9.472656 -3.921875 9.984375 -3.203125 C 10.503906 -2.492188 10.992188 -1.976562 11.453125 -1.65625 C 11.910156 -1.332031 12.421875 -1.144531 12.984375 -1.09375 L 13.03125 0 L 9.984375 0 C 9.460938 -0.5625 9.015625 -1.109375 8.640625 -1.640625 C 8.273438 -2.171875 7.910156 -2.769531 7.546875 -3.4375 C 7.191406 -4.101562 6.765625 -4.894531 6.265625 -5.8125 L 3.953125 -5.8125 L 3.953125 -2.265625 C 3.953125 -1.578125 4.273438 -1.164062 4.921875 -1.03125 L 4.921875 0 Z M 3.953125 -7.4375 L 5.078125 -7.4375 C 5.585938 -7.4375 6.078125 -7.457031 6.546875 -7.5 C 7.023438 -7.550781 7.457031 -7.675781 7.84375 -7.875 C 8.226562 -8.070312 8.53125 -8.375 8.75 -8.78125 C 8.976562 -9.1875 9.09375 -9.75 9.09375 -10.46875 C 9.09375 -11.164062 8.816406 -11.753906 8.265625 -12.234375 C 7.722656 -12.722656 6.878906 -12.972656 5.734375 -12.984375 C 5.492188 -12.992188 5.203125 -12.992188 4.859375 -12.984375 C 4.515625 -12.984375 4.210938 -12.984375 3.953125 -12.984375 Z M 3.953125 -7.4375 "/></g></g><g style="fill:#000000;fill-opacity:1;"><g transform="translate(252.083794, 280.242749)"><path style="stroke:none" d="M 0.625 0 L 0.625 -1.03125 L 1.59375 -1.234375 L 1.59375 -12.515625 C 1.59375 -13.273438 1.269531 -13.734375 0.625 -13.890625 L 0.625 -14.921875 L 4.75 -14.921875 L 4.75 -13.890625 L 3.78125 -13.671875 L 3.78125 -2.375 C 3.78125 -1.601562 4.101562 -1.15625 4.75 -1.03125 L 4.75 0 Z M 0.625 0 "/></g></g><g style="fill:#000000;fill-opacity:1;"><g transform="translate(257.417701, 280.242749)"><path style="stroke:none" d="M 1.625 0 L 1.625 -12.5 C 1.625 -13.300781 1.285156 -13.75 0.609375 -13.84375 L 0.609375 -14.921875 L 10.0625 -14.921875 L 10.84375 -14.28125 L 10.5 -12.046875 L 9.5 -12.046875 C 9.394531 -12.753906 8.953125 -13.109375 8.171875 -13.109375 L 3.796875 -13.109375 L 3.796875 -8.953125 L 9.34375 -8.953125 L 9.34375 -7.140625 L 3.796875 -7.140625 L 3.796875 -1.8125 L 8.171875 -1.8125 C 8.953125 -1.8125 9.394531 -2.164062 9.5 -2.875 L 10.5 -2.875 L 10.84375 -0.609375 L 10.0625 0 Z M 1.625 0 "/></g></g><g style="fill:#000000;fill-opacity:1;"><g transform="translate(269.282485, 280.242749)"><path style="stroke:none" d="M 6.21875 -15.1875 C 7.039062 -15.175781 7.851562 -15.03125 8.65625 -14.75 C 9.457031 -14.46875 10.1875 -13.894531 10.84375 -13.03125 L 10.40625 -10.609375 L 8.96875 -10.609375 C 8.96875 -11.546875 8.738281 -12.234375 8.28125 -12.671875 C 7.832031 -13.117188 7.140625 -13.347656 6.203125 -13.359375 C 5.390625 -13.378906 4.722656 -13.175781 4.203125 -12.75 C 3.679688 -12.320312 3.421875 -11.726562 3.421875 -10.96875 C 3.421875 -10.570312 3.582031 -10.257812 3.90625 -10.03125 C 4.226562 -9.8125 4.648438 -9.628906 5.171875 -9.484375 C 5.691406 -9.347656 6.265625 -9.210938 6.890625 -9.078125 C 7.523438 -8.953125 8.15625 -8.789062 8.78125 -8.59375 C 9.414062 -8.394531 9.988281 -8.128906 10.5 -7.796875 C 11.019531 -7.460938 11.441406 -7.015625 11.765625 -6.453125 C 12.085938 -5.898438 12.25 -5.195312 12.25 -4.34375 C 12.25 -3.46875 12.039062 -2.664062 11.625 -1.9375 C 11.21875 -1.207031 10.578125 -0.640625 9.703125 -0.234375 C 8.835938 0.171875 7.703125 0.363281 6.296875 0.34375 C 5.617188 0.34375 5 0.238281 4.4375 0.03125 C 3.882812 -0.164062 3.398438 -0.410156 2.984375 -0.703125 C 2.578125 -1.003906 2.234375 -1.300781 1.953125 -1.59375 C 1.671875 -1.882812 1.460938 -2.128906 1.328125 -2.328125 C 1.203125 -2.535156 1.140625 -2.640625 1.140625 -2.640625 L 1.53125 -6.015625 L 2.90625 -6.015625 C 2.90625 -3.109375 4.066406 -1.65625 6.390625 -1.65625 C 7.054688 -1.65625 7.65625 -1.738281 8.1875 -1.90625 C 8.726562 -2.082031 9.144531 -2.363281 9.4375 -2.75 C 9.738281 -3.144531 9.890625 -3.675781 9.890625 -4.34375 C 9.890625 -4.945312 9.734375 -5.429688 9.421875 -5.796875 C 9.109375 -6.160156 8.6875 -6.453125 8.15625 -6.671875 C 7.632812 -6.890625 7.054688 -7.066406 6.421875 -7.203125 C 5.796875 -7.347656 5.171875 -7.492188 4.546875 -7.640625 C 3.921875 -7.796875 3.347656 -7.992188 2.828125 -8.234375 C 2.316406 -8.484375 1.90625 -8.8125 1.59375 -9.21875 C 1.289062 -9.625 1.144531 -10.160156 1.15625 -10.828125 C 1.164062 -11.609375 1.316406 -12.273438 1.609375 -12.828125 C 1.910156 -13.390625 2.304688 -13.847656 2.796875 -14.203125 C 3.285156 -14.554688 3.828125 -14.8125 4.421875 -14.96875 C 5.015625 -15.132812 5.613281 -15.207031 6.21875 -15.1875 Z M 6.21875 -15.1875 "/></g></g><path style="fill:none;stroke-width:2;stroke-linecap:butt;stroke-linejoin:miter;stroke:#000000;stroke-opacity:1;stroke-miterlimit:4;" d="M -0.000961003 1.000666 L 143.384482 1.000666 " transform="matrix(1.636542,-0.000000000000001218,0.000000000000001218,1.636542,67.435166,240.838931)"/><path style="fill:none;stroke-width:2;stroke-linecap:butt;stroke-linejoin:miter;stroke:#000000;stroke-opacity:1;stroke-miterlimit:4;" d="M -0.000961003 1.00101 L 143.384482 1.00101 " transform="matrix(1.636542,-0.000000000000000609,0.000000000000000609,1.636542,67.435166,170.248525)"/><path style=" stroke:none;fill-rule:nonzero;fill:#393536;fill-opacity:1;" d="M 170.777344 54.644531 C 168.523438 56.648438 168.390625 56.769531 168.207031 56.746094 C 168.21875 56.144531 171.476562 53.597656 172.75 52.972656 C 172.710938 53.03125 172.710938 53.03125 172.46875 53.21875 C 171.996094 53.589844 171.527344 53.976562 170.777344 54.644531 "/><path style=" stroke:none;fill-rule:nonzero;fill:#393536;fill-opacity:1;" d="M 173.371094 53.6875 C 171.714844 55.574219 170.648438 55.984375 170.640625 55.570312 C 170.632812 54.835938 173.105469 52.851562 174.246094 52.386719 C 174.273438 52.378906 174.3125 52.371094 174.34375 52.367188 L 174.371094 52.394531 C 174.320312 52.605469 173.410156 53.644531 173.371094 53.6875 "/><path style=" stroke:none;fill-rule:nonzero;fill:#393536;fill-opacity:1;" d="M 176.828125 52.550781 C 176.308594 53.976562 174.523438 54.761719 174.230469 54.152344 C 173.910156 53.488281 175.472656 51.996094 176.464844 51.632812 C 177.234375 51.421875 176.847656 52.507812 176.828125 52.550781 "/><path style=" stroke:none;fill-rule:nonzero;fill:#393536;fill-opacity:1;" d="M 180.503906 51.449219 C 180.980469 52.320312 179.65625 53.203125 178.65625 52.925781 C 177.609375 52.636719 177.914062 51.421875 178.703125 50.972656 C 178.796875 50.917969 178.886719 50.886719 178.953125 50.863281 C 179.621094 50.695312 180.277344 51.035156 180.503906 51.449219 "/><path style=" stroke:none;fill-rule:nonzero;fill:#393536;fill-opacity:1;" d="M 184.019531 50.476562 C 184.839844 50.863281 184.777344 51.359375 184.207031 51.578125 C 182.824219 52.109375 180.839844 50.902344 181.164062 50.320312 C 181.214844 50.226562 181.335938 50.191406 181.421875 50.164062 C 182.03125 50.023438 183.246094 50.117188 184.019531 50.476562 "/><g clip-rule="nonzero" clip-path="url(#02eec7a3f8)"><path style=" stroke:none;fill-rule:nonzero;fill:#393536;fill-opacity:1;" d="M 187 49.75 C 188.144531 49.992188 188.539062 50.34375 188.246094 50.527344 C 188.046875 50.65625 187.425781 50.730469 186.339844 50.53125 C 185.417969 50.359375 183.542969 49.800781 183.503906 49.65625 C 183.523438 49.628906 183.539062 49.621094 183.613281 49.601562 C 184.195312 49.488281 185.761719 49.488281 187 49.75 "/></g><g clip-rule="nonzero" clip-path="url(#223af89681)"><path style=" stroke:none;fill-rule:nonzero;fill:#393536;fill-opacity:1;" d="M 189.019531 49.378906 C 190.03125 49.511719 191.128906 49.757812 191.136719 49.933594 C 191.09375 49.964844 191.003906 50.03125 190.109375 49.929688 C 190.066406 49.925781 185.292969 49.285156 185.234375 49.265625 L 185.261719 49.253906 C 185.574219 49.214844 187.234375 49.148438 189.019531 49.378906 "/></g><path style=" stroke:none;fill-rule:nonzero;fill:#393536;fill-opacity:1;" d="M 165.058594 60.828125 C 163.886719 62.730469 163.191406 63.664062 162.984375 63.601562 C 162.726562 63.027344 165.457031 59.015625 166.375 58.394531 L 166.414062 58.378906 C 166.445312 58.445312 166.480469 58.523438 165.058594 60.828125 "/><path style=" stroke:none;fill-rule:nonzero;fill:#393536;fill-opacity:1;" d="M 168.347656 59.503906 C 167.277344 61.636719 165.695312 62.90625 165.433594 62.152344 C 165.078125 61.136719 167.285156 58.023438 168.5625 57.433594 C 169.523438 57.140625 168.359375 59.480469 168.347656 59.503906 "/><path style=" stroke:none;fill-rule:nonzero;fill:#393536;fill-opacity:1;" d="M 173.484375 57.730469 C 172.929688 59.855469 170.523438 61.265625 169.832031 60.246094 C 169.164062 59.257812 170.726562 56.707031 172.40625 56.046875 C 173.746094 55.667969 173.636719 57.132812 173.484375 57.730469 "/><path style=" stroke:none;fill-rule:nonzero;fill:#393536;fill-opacity:1;" d="M 179.429688 55.863281 C 179.65625 57.871094 176.945312 59.1875 175.757812 58.128906 C 174.738281 57.214844 175.628906 55.0625 177.273438 54.472656 C 178.613281 54.125 179.339844 55.078125 179.429688 55.863281 "/><path style=" stroke:none;fill-rule:nonzero;fill:#393536;fill-opacity:1;" d="M 185.417969 54.136719 C 186.292969 55.566406 184.535156 56.8125 182.859375 56.40625 C 181.011719 55.960938 180.648438 53.960938 181.878906 53.175781 C 182.050781 53.070312 182.21875 53.007812 182.355469 52.964844 C 183.757812 52.632812 185.015625 53.464844 185.417969 54.136719 "/><path style=" stroke:none;fill-rule:nonzero;fill:#393536;fill-opacity:1;" d="M 190.84375 52.71875 C 191.945312 53.636719 191.625 54.632812 190.199219 54.730469 C 188.046875 54.875 185.828125 52.804688 186.664062 51.917969 C 186.800781 51.773438 186.964844 51.722656 187.136719 51.667969 C 188.347656 51.417969 190.003906 52.019531 190.84375 52.71875 "/><path style=" stroke:none;fill-rule:nonzero;fill:#393536;fill-opacity:1;" d="M 195.078125 51.785156 C 196.34375 52.492188 196.722656 53.234375 195.910156 53.410156 C 194.257812 53.765625 190.382812 51.457031 190.855469 50.847656 C 190.910156 50.78125 191.015625 50.75 191.097656 50.726562 C 192.078125 50.582031 193.945312 51.15625 195.078125 51.785156 "/><path style=" stroke:none;fill-rule:nonzero;fill:#393536;fill-opacity:1;" d="M 197.289062 51.53125 C 198.246094 51.972656 199.292969 52.558594 199.328125 52.808594 C 198.945312 53.238281 193.589844 50.390625 193.558594 50.335938 C 193.574219 50.324219 193.59375 50.316406 193.613281 50.304688 C 194.050781 50.3125 195.664062 50.78125 197.289062 51.53125 "/><path style=" stroke:none;fill-rule:nonzero;fill:#393536;fill-opacity:1;" d="M 161.1875 68.105469 C 160.382812 70.878906 160.230469 71.105469 160.175781 71.1875 L 160.144531 71.175781 C 160.144531 71.097656 160.144531 71.027344 160.199219 70.746094 L 160.203125 70.730469 C 160.820312 68.074219 160.820312 68.074219 161.289062 66.777344 L 161.800781 65.464844 C 161.90625 65.214844 161.9375 65.164062 161.972656 65.109375 L 161.996094 65.121094 C 161.988281 65.222656 161.976562 65.390625 161.1875 68.105469 "/><path style=" stroke:none;fill-rule:nonzero;fill:#393536;fill-opacity:1;" d="M 164.105469 66.753906 C 163.542969 68.957031 162.328125 70.628906 161.820312 69.890625 C 161.148438 68.902344 162.550781 64.792969 163.800781 64.105469 C 164.574219 63.859375 164.398438 65.597656 164.105469 66.753906 "/><path style=" stroke:none;fill-rule:nonzero;fill:#393536;fill-opacity:1;" d="M 169.578125 64.738281 C 169.214844 67.15625 166.808594 69.105469 165.847656 67.757812 C 164.980469 66.542969 166.074219 63.289062 167.988281 62.472656 C 169.378906 62.066406 169.753906 63.550781 169.578125 64.738281 "/><path style=" stroke:none;fill-rule:nonzero;fill:#393536;fill-opacity:1;" d="M 176.867188 62.34375 C 176.953125 64.746094 173.921875 66.722656 172.367188 65.273438 C 171.117188 64.117188 171.902344 61.226562 174.210938 60.359375 C 176.078125 59.855469 176.832031 61.308594 176.867188 62.34375 "/><path style=" stroke:none;fill-rule:nonzero;fill:#393536;fill-opacity:1;" d="M 184.617188 60.011719 C 185.207031 62.175781 182.558594 64.023438 180.453125 62.921875 C 178.597656 61.949219 178.714844 59.058594 181.179688 58.203125 C 183.082031 57.730469 184.332031 58.976562 184.617188 60.011719 "/><path style=" stroke:none;fill-rule:nonzero;fill:#393536;fill-opacity:1;" d="M 192.027344 57.96875 C 193.003906 59.757812 191.269531 61.386719 189.035156 60.78125 C 186.496094 60.089844 185.945312 57.28125 187.65625 56.402344 C 187.78125 56.339844 187.960938 56.277344 188.09375 56.234375 C 189.933594 55.828125 191.503906 57.003906 192.027344 57.96875 "/><path style=" stroke:none;fill-rule:nonzero;fill:#393536;fill-opacity:1;" d="M 198.316406 56.433594 C 199.464844 57.832031 198.902344 59.128906 197.195312 59.007812 C 194.589844 58.820312 192.507812 55.847656 193.746094 54.882812 C 193.902344 54.761719 194.085938 54.707031 194.230469 54.660156 C 195.792969 54.382812 197.59375 55.554688 198.316406 56.433594 "/><path style=" stroke:none;fill-rule:nonzero;fill:#393536;fill-opacity:1;" d="M 202.574219 55.648438 C 203.816406 56.824219 204.097656 57.824219 203.195312 57.832031 C 201.511719 57.847656 197.734375 54.464844 198.652344 53.765625 C 198.707031 53.726562 198.789062 53.703125 198.855469 53.6875 C 199.898438 53.601562 201.660156 54.785156 202.574219 55.648438 "/><path style=" stroke:none;fill-rule:nonzero;fill:#393536;fill-opacity:1;" d="M 205.722656 57.398438 C 205.835938 57.515625 205.863281 57.554688 205.886719 57.597656 L 205.871094 57.621094 C 205.417969 57.421875 201.265625 53.882812 200.996094 53.539062 L 201.007812 53.519531 C 201.078125 53.550781 201.105469 53.566406 201.296875 53.691406 L 202.492188 54.539062 C 204.621094 56.265625 204.621094 56.265625 205.585938 57.25 L 205.648438 57.316406 C 205.671875 57.339844 205.703125 57.371094 205.722656 57.398438 "/><path style=" stroke:none;fill-rule:nonzero;fill:#393536;fill-opacity:1;" d="M 161.539062 74.570312 C 161.507812 76.804688 160.964844 78.476562 160.457031 77.878906 C 159.746094 77.039062 159.804688 72.253906 160.773438 71.527344 C 161.359375 71.324219 161.554688 73.285156 161.539062 74.570312 "/><path style=" stroke:none;fill-rule:nonzero;fill:#393536;fill-opacity:1;" d="M 166.316406 72.644531 C 166.339844 75.257812 164.65625 77.210938 163.449219 75.96875 C 162.214844 74.6875 162.5625 70.8125 164.367188 69.949219 C 165.6875 69.550781 166.300781 71.285156 166.316406 72.644531 "/><path style=" stroke:none;fill-rule:nonzero;fill:#393536;fill-opacity:1;" d="M 173.78125 70.066406 C 173.988281 72.882812 170.988281 75.042969 169.191406 73.367188 C 167.679688 71.957031 168.214844 68.65625 170.683594 67.667969 C 172.769531 67.082031 173.691406 68.828125 173.78125 70.066406 "/><path style=" stroke:none;fill-rule:nonzero;fill:#393536;fill-opacity:1;" d="M 182.425781 67.355469 C 182.902344 70.117188 179.710938 72.226562 177.472656 70.621094 C 175.648438 69.316406 175.992188 66.058594 178.6875 65.082031 C 180.894531 64.515625 182.203125 66.070312 182.425781 67.355469 "/><path style=" stroke:none;fill-rule:nonzero;fill:#393536;fill-opacity:1;" d="M 191.132812 64.839844 C 191.867188 67.363281 189.109375 69.351562 186.667969 68.070312 C 184.429688 66.894531 184.277344 63.539062 187.046875 62.601562 C 189.261719 62.085938 190.769531 63.601562 191.132812 64.839844 "/><path style=" stroke:none;fill-rule:nonzero;fill:#393536;fill-opacity:1;" d="M 199.015625 62.78125 C 199.976562 65.09375 197.957031 66.878906 195.582031 65.808594 C 193.058594 64.671875 192.476562 61.378906 194.652344 60.546875 C 194.726562 60.519531 194.828125 60.492188 194.90625 60.46875 C 196.90625 60.070312 198.511719 61.582031 199.015625 62.78125 "/><path style=" stroke:none;fill-rule:nonzero;fill:#393536;fill-opacity:1;" d="M 205.167969 61.425781 C 206.179688 63.308594 205.4375 64.789062 203.71875 64.308594 C 201.363281 63.648438 199.503906 59.964844 201.066406 59.054688 C 201.164062 58.996094 201.3125 58.953125 201.421875 58.921875 C 202.960938 58.710938 204.539062 60.257812 205.167969 61.425781 "/><path style=" stroke:none;fill-rule:nonzero;fill:#393536;fill-opacity:1;" d="M 208.382812 61.054688 C 209.347656 62.574219 209.625 63.71875 209 63.609375 C 207.675781 63.375 204.574219 58.664062 205.46875 58.25 C 205.492188 58.238281 205.523438 58.234375 205.550781 58.226562 C 206.296875 58.277344 207.65625 59.910156 208.382812 61.054688 "/><path style=" stroke:none;fill-rule:nonzero;fill:#393536;fill-opacity:1;" d="M 161.5 83.058594 C 161.832031 84.195312 162.328125 86.152344 162.085938 86.25 C 161.980469 86.203125 161.816406 86 161.382812 84.851562 L 160.855469 83.273438 L 160.34375 81.316406 C 160.0625 80.015625 160.140625 79.851562 160.175781 79.78125 L 160.207031 79.769531 C 160.515625 79.914062 161.164062 81.90625 161.5 83.058594 "/><path style=" stroke:none;fill-rule:nonzero;fill:#393536;fill-opacity:1;" d="M 164.949219 81.457031 C 165.539062 83.777344 164.894531 85.550781 163.71875 84.84375 C 162.144531 83.898438 161.027344 79.359375 162.535156 78.488281 C 163.597656 78.15625 164.585938 80.027344 164.949219 81.457031 "/><path style=" stroke:none;fill-rule:nonzero;fill:#393536;fill-opacity:1;" d="M 171.421875 79.074219 C 172.019531 81.8125 169.90625 83.890625 167.945312 82.5 C 166.011719 81.125 165.695312 77.359375 167.945312 76.375 C 169.820312 75.835938 171.105469 77.628906 171.421875 79.074219 "/><path style=" stroke:none;fill-rule:nonzero;fill:#393536;fill-opacity:1;" d="M 180.039062 76.246094 C 180.628906 79.160156 177.621094 81.324219 175.238281 79.699219 C 173.144531 78.273438 173.1875 74.714844 175.988281 73.644531 C 178.425781 72.996094 179.769531 74.894531 180.039062 76.246094 "/><path style=" stroke:none;fill-rule:nonzero;fill:#393536;fill-opacity:1;" d="M 189.203125 73.488281 C 189.78125 76.421875 186.617188 78.542969 184.15625 76.871094 C 182.011719 75.421875 182.09375 71.878906 184.996094 70.855469 C 187.5625 70.234375 188.9375 72.140625 189.203125 73.488281 "/><path style=" stroke:none;fill-rule:nonzero;fill:#393536;fill-opacity:1;" d="M 197.964844 71.074219 C 198.527344 73.847656 195.855469 75.839844 193.5 74.402344 C 191.210938 73.007812 191.082031 69.257812 193.929688 68.3125 C 196.230469 67.820312 197.675781 69.628906 197.964844 71.074219 "/><path style=" stroke:none;fill-rule:nonzero;fill:#393536;fill-opacity:1;" d="M 205.402344 69.257812 C 205.960938 71.828125 204.007812 73.636719 202.03125 72.378906 C 199.84375 70.992188 199.371094 67.050781 201.863281 66.28125 C 203.785156 65.957031 205.089844 67.828125 205.402344 69.257812 "/><path style=" stroke:none;fill-rule:nonzero;fill:#393536;fill-opacity:1;" d="M 210.433594 68.332031 C 210.980469 70.507812 210.316406 71.992188 209.09375 71.332031 C 207.191406 70.300781 206.148438 65.675781 207.679688 65.066406 C 207.726562 65.046875 207.789062 65.035156 207.835938 65.023438 C 209.105469 64.945312 210.105469 67.011719 210.433594 68.332031 "/><path style=" stroke:none;fill-rule:nonzero;fill:#393536;fill-opacity:1;" d="M 212.453125 69.9375 C 212.699219 71.074219 212.625 71.203125 212.59375 71.257812 C 212.164062 71.332031 210.289062 65.304688 210.585938 64.8125 L 210.617188 64.804688 C 210.71875 64.867188 210.863281 65.058594 211.246094 66.011719 C 211.464844 66.632812 211.777344 67.460938 211.964844 68.09375 L 212.441406 69.886719 C 212.445312 69.898438 212.449219 69.921875 212.453125 69.9375 "/><path style=" stroke:none;fill-rule:nonzero;fill:#393536;fill-opacity:1;" d="M 166.53125 89.976562 C 167.472656 91.476562 167.929688 92.980469 167.078125 92.738281 C 165.78125 92.375 162.773438 88.132812 163.703125 87.363281 C 164.378906 87.140625 165.761719 88.757812 166.53125 89.976562 "/><path style=" stroke:none;fill-rule:nonzero;fill:#393536;fill-opacity:1;" d="M 171.238281 88.082031 C 172.21875 90.039062 171.546875 91.628906 169.933594 91.171875 C 167.597656 90.507812 165.816406 86.710938 167.386719 85.753906 C 167.4375 85.722656 167.511719 85.691406 167.566406 85.664062 C 169.046875 85.226562 170.605469 86.8125 171.238281 88.082031 "/><path style=" stroke:none;fill-rule:nonzero;fill:#393536;fill-opacity:1;" d="M 178.597656 85.539062 C 179.441406 87.960938 177.335938 89.816406 174.960938 88.742188 C 172.734375 87.734375 171.601562 84.332031 174.359375 83.214844 C 176.515625 82.617188 178.132812 84.214844 178.597656 85.539062 "/><path style=" stroke:none;fill-rule:nonzero;fill:#393536;fill-opacity:1;" d="M 187.113281 82.863281 C 187.71875 85.691406 184.675781 87.554688 182.253906 85.847656 C 180.273438 84.445312 180.304688 81.410156 182.964844 80.433594 C 185.339844 79.832031 186.820312 81.492188 187.113281 82.863281 "/><path style=" stroke:none;fill-rule:nonzero;fill:#393536;fill-opacity:1;" d="M 195.691406 80.390625 C 195.96875 83.25 192.808594 85.082031 190.71875 83.273438 C 188.976562 81.769531 189.320312 78.667969 191.949219 77.765625 C 194.304688 77.230469 195.554688 78.976562 195.691406 80.390625 "/><path style=" stroke:none;fill-rule:nonzero;fill:#393536;fill-opacity:1;" d="M 203.460938 78.359375 C 203.476562 81.152344 200.832031 82.863281 199.105469 81.179688 C 197.53125 79.644531 197.957031 76.253906 200.398438 75.472656 C 202.496094 75.066406 203.449219 76.917969 203.460938 78.359375 "/><path style=" stroke:none;fill-rule:nonzero;fill:#393536;fill-opacity:1;" d="M 209.523438 77.023438 C 209.402344 79.546875 207.65625 81.105469 206.414062 79.800781 C 204.992188 78.308594 205.355469 74.414062 207.40625 73.8125 C 208.984375 73.609375 209.597656 75.570312 209.523438 77.023438 "/><path style=" stroke:none;fill-rule:nonzero;fill:#393536;fill-opacity:1;" d="M 212.691406 76.660156 C 212.582031 78.648438 212.003906 79.972656 211.480469 79.441406 C 210.617188 78.554688 210.617188 73.382812 211.847656 73.066406 C 212.5625 73.140625 212.773438 75.210938 212.691406 76.660156 "/><path style=" stroke:none;fill-rule:nonzero;fill:#393536;fill-opacity:1;" d="M 170.546875 96.1875 C 171.902344 97.304688 172.574219 97.945312 172.535156 98.097656 C 172.019531 98.304688 167.382812 94.636719 167.523438 94.128906 C 167.855469 93.996094 170.097656 95.820312 170.546875 96.1875 "/><path style=" stroke:none;fill-rule:nonzero;fill:#393536;fill-opacity:1;" d="M 173.347656 94.886719 C 174.421875 95.976562 174.980469 97.128906 174.054688 97.179688 C 172.320312 97.265625 168.730469 94.125 169.429688 93.128906 C 169.472656 93.070312 169.558594 93.015625 169.621094 92.976562 C 170.539062 92.691406 172.226562 93.746094 173.347656 94.886719 "/><path style=" stroke:none;fill-rule:nonzero;fill:#393536;fill-opacity:1;" d="M 178.601562 92.949219 C 179.640625 94.488281 179.117188 96.023438 177.042969 95.558594 C 174.367188 94.957031 172.527344 92.097656 174.234375 91.1875 C 174.292969 91.15625 174.375 91.125 174.4375 91.101562 C 176.121094 90.613281 177.886719 91.890625 178.601562 92.949219 "/><path style=" stroke:none;fill-rule:nonzero;fill:#393536;fill-opacity:1;" d="M 185.601562 90.652344 C 186.34375 92.648438 184.59375 94.398438 182.097656 93.265625 C 179.835938 92.242188 179.167969 89.597656 181.589844 88.667969 C 183.648438 88.121094 185.175781 89.5 185.601562 90.652344 "/><path style=" stroke:none;fill-rule:nonzero;fill:#393536;fill-opacity:1;" d="M 193.042969 88.414062 C 193.289062 90.644531 190.875 92.46875 188.800781 90.933594 C 187.09375 89.671875 187.183594 87.042969 189.605469 86.1875 C 191.753906 85.667969 192.910156 87.175781 193.042969 88.414062 "/><path style=" stroke:none;fill-rule:nonzero;fill:#393536;fill-opacity:1;" d="M 200.164062 86.453125 C 199.917969 88.839844 197.417969 90.628906 195.90625 88.863281 C 194.679688 87.429688 195.28125 84.679688 197.550781 83.925781 C 199.386719 83.535156 200.320312 84.90625 200.164062 86.453125 "/><path style=" stroke:none;fill-rule:nonzero;fill:#393536;fill-opacity:1;" d="M 206.203125 84.980469 C 205.613281 87.285156 203.425781 88.992188 202.519531 87.316406 C 201.746094 85.882812 202.484375 82.773438 204.609375 82.117188 C 206.285156 81.839844 206.550781 83.625 206.203125 84.980469 "/><path style=" stroke:none;fill-rule:nonzero;fill:#393536;fill-opacity:1;" d="M 210.289062 84.226562 C 209.660156 86.078125 208.359375 87.644531 207.847656 86.777344 C 207.203125 85.691406 208.265625 81.460938 209.921875 81 C 210.84375 80.953125 210.832031 82.636719 210.289062 84.226562 "/><path style=" stroke:none;fill-rule:nonzero;fill:#393536;fill-opacity:1;" d="M 211.621094 84.339844 C 211.195312 85.542969 210.621094 86.8125 210.398438 86.855469 C 210.121094 86.589844 212.007812 80.878906 212.398438 80.804688 C 212.597656 80.988281 212.152344 82.820312 211.621094 84.339844 "/><path style=" stroke:none;fill-rule:nonzero;fill:#393536;fill-opacity:1;" d="M 177.679688 99.484375 C 179.210938 100.230469 179.894531 100.664062 179.710938 100.773438 C 178.972656 101.226562 173.5625 98.871094 173.921875 98.253906 C 173.929688 98.238281 173.953125 98.226562 173.96875 98.214844 C 174.566406 98.015625 176.765625 99.035156 177.679688 99.484375 "/><path style=" stroke:none;fill-rule:nonzero;fill:#393536;fill-opacity:1;" d="M 180.777344 98.238281 C 181.519531 98.761719 182.550781 99.695312 181.695312 99.886719 C 180.171875 100.230469 175.972656 98.316406 176.519531 97.203125 C 176.578125 97.082031 176.699219 97.019531 176.800781 96.96875 C 177.84375 96.65625 179.59375 97.40625 180.777344 98.238281 "/><path style=" stroke:none;fill-rule:nonzero;fill:#393536;fill-opacity:1;" d="M 185.609375 96.566406 C 186.523438 97.734375 186.222656 98.847656 184.324219 98.578125 C 181.878906 98.230469 180.078125 96.242188 181.40625 95.355469 C 181.511719 95.285156 181.664062 95.222656 181.777344 95.175781 C 183.429688 94.714844 184.976562 95.753906 185.609375 96.566406 "/><path style=" stroke:none;fill-rule:nonzero;fill:#393536;fill-opacity:1;" d="M 191.207031 94.8125 C 191.667969 96.550781 190.023438 97.835938 188.042969 96.605469 C 186.519531 95.660156 186.265625 93.804688 188.085938 93.132812 C 189.65625 92.734375 190.90625 93.675781 191.207031 94.8125 "/><path style=" stroke:none;fill-rule:nonzero;fill:#393536;fill-opacity:1;" d="M 196.84375 93.183594 C 196.617188 94.984375 194.707031 96.566406 193.394531 94.976562 C 192.441406 93.820312 192.851562 91.800781 194.675781 91.179688 C 196.238281 90.824219 197.007812 91.917969 196.84375 93.183594 "/><path style=" stroke:none;fill-rule:nonzero;fill:#393536;fill-opacity:1;" d="M 201.949219 91.851562 C 201.234375 93.558594 199.320312 95.214844 198.691406 93.832031 C 198.148438 92.636719 199.003906 90.09375 200.871094 89.496094 C 202.253906 89.234375 202.507812 90.511719 201.949219 91.851562 "/><path style=" stroke:none;fill-rule:nonzero;fill:#393536;fill-opacity:1;" d="M 205.933594 90.972656 C 204.949219 92.585938 203.257812 94.011719 203.050781 93.152344 C 202.804688 92.152344 204.332031 88.769531 206.003906 88.277344 C 207.023438 88.15625 206.789062 89.574219 205.933594 90.972656 "/><path style=" stroke:none;fill-rule:nonzero;fill:#393536;fill-opacity:1;" d="M 208.015625 90.730469 C 207.015625 92.160156 205.90625 93.21875 205.804688 92.964844 C 205.695312 92.695312 208.265625 87.988281 209.261719 87.734375 C 209.703125 87.800781 208.96875 89.371094 208.015625 90.730469 "/><path style=" stroke:none;fill-rule:nonzero;fill:#393536;fill-opacity:1;" d="M 185.460938 101.234375 C 187.511719 101.65625 187.511719 101.65625 187.585938 101.695312 L 187.570312 101.730469 C 186.28125 102.117188 181.160156 101.289062 181.617188 100.769531 C 181.628906 100.753906 181.652344 100.746094 181.667969 100.734375 C 182.21875 100.566406 183.722656 100.875 185.460938 101.234375 "/><path style=" stroke:none;fill-rule:nonzero;fill:#393536;fill-opacity:1;" d="M 187.871094 100.347656 C 189.425781 101.015625 189.128906 101.125 189.03125 101.164062 C 188.03125 101.539062 183.722656 100.65625 184.121094 99.859375 C 184.164062 99.773438 184.273438 99.722656 184.355469 99.683594 C 185.460938 99.371094 187.324219 100.113281 187.871094 100.347656 "/><path style=" stroke:none;fill-rule:nonzero;fill:#393536;fill-opacity:1;" d="M 191.078125 99.292969 C 191.335938 99.605469 192.054688 100.609375 190.484375 100.457031 C 188.652344 100.28125 187.246094 99.203125 187.980469 98.53125 C 188.089844 98.429688 188.242188 98.371094 188.351562 98.328125 C 189.441406 98.039062 190.527344 98.628906 191.078125 99.292969 "/><path style=" stroke:none;fill-rule:nonzero;fill:#393536;fill-opacity:1;" d="M 194.488281 98.265625 C 194.421875 99.613281 193.277344 100.273438 192.242188 99.074219 C 191.628906 98.363281 191.71875 97.339844 192.824219 96.945312 C 193.921875 96.679688 194.535156 97.410156 194.488281 98.265625 "/><path style=" stroke:none;fill-rule:nonzero;fill:#393536;fill-opacity:1;" d="M 197.753906 97.367188 C 197.484375 97.808594 195.84375 99.859375 195.570312 98.585938 C 195.382812 97.695312 195.945312 96.121094 197.261719 95.679688 C 198.28125 95.46875 198.339844 96.398438 197.753906 97.367188 "/><path style=" stroke:none;fill-rule:nonzero;fill:#393536;fill-opacity:1;" d="M 200.519531 96.691406 C 199.636719 97.605469 198.09375 98.710938 198.054688 98.375 C 198.023438 98.066406 199.75 95.125 201.203125 94.671875 C 201.914062 94.558594 201.578125 95.351562 201.183594 95.910156 C 201.007812 96.15625 200.785156 96.421875 200.519531 96.691406 "/><path style=" stroke:none;fill-rule:nonzero;fill:#393536;fill-opacity:1;" d="M 202.394531 96.347656 C 201.273438 97.292969 199.96875 98.101562 199.777344 98.09375 C 199.820312 97.796875 203.347656 94.277344 204.171875 94.046875 C 204.582031 94.039062 203.910156 94.902344 203.296875 95.519531 C 203.03125 95.789062 202.726562 96.066406 202.394531 96.347656 "/><path style=" stroke:none;fill-rule:nonzero;fill:#393536;fill-opacity:1;" d="M 111.640625 71.058594 L 176.035156 115.515625 L 180.332031 112.773438 L 179.578125 112.277344 L 171.929688 107.242188 L 164.292969 102.195312 L 156.660156 97.128906 L 149.039062 92.050781 C 146.5 90.359375 143.96875 88.652344 141.433594 86.953125 L 137.632812 84.402344 L 133.835938 81.839844 C 131.308594 80.132812 128.777344 78.425781 126.253906 76.703125 C 123.730469 74.988281 121.207031 73.265625 118.695312 71.535156 C 121.289062 73.144531 123.875 74.765625 126.460938 76.394531 C 129.046875 78.011719 131.625 79.648438 134.203125 81.285156 L 138.070312 83.734375 L 141.933594 86.199219 C 144.507812 87.839844 147.085938 89.476562 149.652344 91.128906 L 157.359375 96.078125 L 165.054688 101.039062 L 172.742188 106.015625 L 180.421875 111.007812 L 181.742188 111.871094 L 182.964844 111.089844 L 114.253906 67.179688 C 113.253906 66.542969 111.933594 66.742188 111.175781 67.648438 C 110.296875 68.699219 110.511719 70.277344 111.640625 71.058594 "/><path style=" stroke:none;fill-rule:nonzero;fill:#393536;fill-opacity:1;" d="M 265.640625 131.652344 C 263.109375 129.664062 259.507812 129.789062 257.132812 131.957031 L 240.054688 147.566406 L 194.585938 118.515625 L 193.285156 119.410156 L 195.753906 121.027344 L 203.40625 126.054688 L 211.054688 131.09375 L 218.6875 136.148438 L 226.316406 141.214844 L 233.933594 146.300781 L 241.269531 151.222656 L 243.296875 149.417969 L 245.574219 147.402344 L 250.136719 143.367188 L 254.707031 139.34375 L 257 137.339844 L 259.292969 135.339844 L 257.09375 137.441406 L 254.886719 139.539062 L 250.464844 143.722656 L 246.03125 147.894531 L 243.8125 149.980469 L 241.589844 152.058594 L 241.355469 152.277344 L 241.074219 152.101562 L 233.351562 147.179688 L 225.640625 142.234375 L 217.941406 137.273438 L 210.253906 132.300781 L 202.574219 127.3125 L 194.898438 122.3125 L 191.914062 120.359375 L 187.480469 123.421875 L 239.730469 159.496094 C 243.265625 161.9375 247.828125 162.367188 251.769531 160.628906 C 280.359375 148.035156 272.253906 136.851562 265.640625 131.652344 "/><path style=" stroke:none;fill-rule:nonzero;fill:#393536;fill-opacity:1;" d="M 244.3125 76.703125 C 241.789062 78.425781 239.257812 80.132812 236.730469 81.839844 L 232.933594 84.402344 L 229.132812 86.953125 C 226.59375 88.652344 224.066406 90.359375 221.523438 92.050781 L 213.902344 97.128906 L 206.273438 102.195312 L 198.632812 107.242188 L 190.988281 112.277344 L 183.328125 117.300781 L 175.664062 122.3125 L 167.992188 127.3125 L 160.3125 132.300781 L 152.621094 137.273438 L 144.921875 142.234375 L 137.214844 147.179688 L 129.492188 152.101562 L 129.210938 152.277344 L 128.976562 152.058594 L 126.753906 149.980469 L 124.535156 147.894531 L 120.101562 143.722656 L 115.679688 139.539062 L 113.472656 137.441406 L 111.273438 135.339844 L 113.566406 137.339844 L 115.859375 139.34375 L 120.429688 143.367188 L 124.988281 147.402344 L 127.269531 149.417969 L 129.296875 151.222656 L 136.632812 146.300781 L 144.25 141.214844 L 151.875 136.148438 L 159.511719 131.09375 L 167.160156 126.054688 L 174.8125 121.027344 L 182.472656 116.011719 L 190.144531 111.007812 L 197.824219 106.015625 L 205.507812 101.039062 L 213.207031 96.078125 L 220.914062 91.128906 C 223.480469 89.476562 226.058594 87.839844 228.632812 86.199219 L 232.492188 83.734375 L 236.359375 81.285156 C 238.941406 79.648438 241.519531 78.011719 244.105469 76.394531 C 246.6875 74.765625 249.277344 73.144531 251.871094 71.535156 C 249.355469 73.265625 246.835938 74.988281 244.3125 76.703125 Z M 259.390625 67.648438 C 258.628906 66.742188 257.308594 66.542969 256.3125 67.179688 L 130.511719 147.566406 L 113.429688 131.957031 C 111.058594 129.789062 107.453125 129.664062 104.925781 131.652344 C 98.3125 136.851562 90.207031 148.035156 118.796875 160.628906 C 122.734375 162.367188 127.296875 161.9375 130.835938 159.496094 L 258.921875 71.058594 C 260.054688 70.277344 260.269531 68.699219 259.390625 67.648438 "/></g></svg>